<svg width="25" height="24" viewBox="0 0 25 24" fill="none" xmlns="http://www.w3.org/2000/svg">
<g id="Logo--linkedin">
<rect width="24" height="24" transform="translate(0.5)" fill="white" style="mix-blend-mode:multiply"/>
<path id="Vector" d="M20.15 3H4.85C4.1 3 3.5 3.6 3.5 4.275V19.65C3.5 20.325 4.1 20.925 4.85 20.925H20.15C20.9 20.925 21.5 20.325 21.5 19.65V4.275C21.5 3.6 20.9 3 20.15 3ZM8.825 18.3H6.2V9.75H8.825V18.3ZM7.55 8.55C6.725 8.55 5.975 7.875 5.975 6.975C5.975 6.075 6.65 5.4 7.55 5.4C8.375 5.4 9.125 6.075 9.125 6.975C9.125 7.875 8.375 8.55 7.55 8.55ZM18.875 18.225H16.25V14.025C16.25 13.05 16.25 11.7 14.825 11.7C13.4 11.7 13.25 12.825 13.25 13.875V18.15H10.625V9.75H13.1V10.875H13.175C13.55 10.2 14.45 9.45 15.725 9.45C18.425 9.45 18.95 11.25 18.95 13.575V18.225H18.875Z" fill="white"/>
</g>
</svg>
