<svg width="25" height="24" viewBox="0 0 25 24" fill="none" xmlns="http://www.w3.org/2000/svg">
<g id="Logo--pinterest">
<rect width="24" height="24" transform="translate(0.5)" fill="white" style="mix-blend-mode:multiply"/>
<path id="Vector" d="M12.4988 1.5C10.0645 1.51658 7.7116 2.37849 5.84259 3.93828C3.97358 5.49807 2.70461 7.65882 2.25278 10.0509C1.80094 12.443 2.19431 14.9177 3.36559 17.0518C4.53688 19.1858 6.41328 20.8466 8.67383 21.75C8.5219 20.7558 8.5219 19.7442 8.67383 18.75L9.91133 13.5C9.71548 13.0245 9.61851 12.5142 9.62633 12C9.62633 10.545 10.4738 9.45 11.5238 9.45C11.714 9.44714 11.9026 9.48543 12.0767 9.56224C12.2507 9.63906 12.4061 9.75258 12.5322 9.89504C12.6582 10.0375 12.752 10.2055 12.8071 10.3876C12.8622 10.5697 12.8773 10.7615 12.8513 10.95C12.8513 11.85 12.2813 13.2 11.9813 14.445C11.9168 14.6772 11.9091 14.9215 11.9589 15.1573C12.0088 15.3931 12.1147 15.6133 12.2678 15.7995C12.4208 15.9857 12.6165 16.1322 12.8382 16.2267C13.0598 16.3212 13.301 16.361 13.5413 16.3425C15.4013 16.3425 16.8413 14.37 16.8413 11.535C16.86 10.9589 16.7584 10.3853 16.5431 9.85061C16.3277 9.31598 16.0032 8.8321 15.5904 8.42986C15.1776 8.02762 14.6854 7.71584 14.1454 7.51442C13.6053 7.31299 13.0292 7.22634 12.4538 7.26C11.8395 7.23361 11.2262 7.33216 10.6511 7.54966C10.0759 7.76717 9.55091 8.09912 9.10778 8.52542C8.66465 8.95172 8.31263 9.46351 8.07303 10.0298C7.83343 10.5961 7.71123 11.2051 7.71383 11.82C7.70549 12.6766 7.96798 13.5139 8.46383 14.2125C8.49988 14.2526 8.52557 14.3009 8.53864 14.3532C8.55171 14.4055 8.55178 14.4602 8.53883 14.5125C8.45633 14.8425 8.27633 15.5625 8.24633 15.705C8.21633 15.8475 8.08882 15.9375 7.89383 15.8475C6.58133 15.2325 5.76383 13.32 5.76383 11.775C5.76383 8.4675 8.17133 5.4225 12.7013 5.4225C16.3388 5.4225 19.1738 8.0175 19.1738 11.49C19.1738 15.105 16.9238 18.015 13.7213 18.015C13.2518 18.0313 12.7857 17.9301 12.3653 17.7206C11.9448 17.511 11.5834 17.1997 11.3138 16.815L10.6613 19.3125C10.3485 20.2831 9.90979 21.2085 9.35633 22.065C10.3762 22.3664 11.4355 22.513 12.4988 22.5C15.2836 22.5 17.9543 21.3938 19.9234 19.4246C21.8926 17.4555 22.9988 14.7848 22.9988 12C22.9988 9.21523 21.8926 6.54451 19.9234 4.57538C17.9543 2.60625 15.2836 1.5 12.4988 1.5Z" fill="white"/>
</g>
</svg>
