<svg width="25" height="24" viewBox="0 0 25 24" fill="none" xmlns="http://www.w3.org/2000/svg">
<g id="Logo--skype">
<rect width="24" height="24" transform="translate(0.5)" fill="white" style="mix-blend-mode:multiply"/>
<path id="Vector" d="M21.4321 13.4102C21.5078 12.944 21.5454 12.4724 21.5446 12.0002C21.5446 9.60129 20.5917 7.30066 18.8954 5.60439C17.1992 3.90813 14.8985 2.95517 12.4996 2.95517C12.0274 2.95444 11.5558 2.99207 11.0896 3.06768C10.0442 2.44143 8.8195 2.18241 7.61002 2.33174C6.40054 2.48107 5.27563 3.0302 4.4139 3.89193C3.55218 4.75365 3.00305 5.87857 2.85371 7.08805C2.70438 8.29753 2.9634 9.52223 3.58965 10.5677C3.50527 11.0406 3.46012 11.5198 3.45465 12.0002C3.45465 14.3991 4.4076 16.6997 6.10387 18.396C7.80013 20.0922 10.1008 21.0452 12.4996 21.0452C12.9719 21.0459 13.4435 21.0083 13.9096 20.9327C14.9551 21.5589 16.1798 21.8179 17.3893 21.6686C18.5987 21.5193 19.7237 20.9701 20.5854 20.1084C21.4471 19.2467 21.9962 18.1218 22.1456 16.9123C22.2949 15.7028 22.0359 14.4781 21.4096 13.4327L21.4321 13.4102ZM16.7971 16.1102C16.3738 16.6955 15.7904 17.146 15.1171 17.4077C14.2864 17.7337 13.3993 17.8917 12.5071 17.8727C11.4687 17.9161 10.4355 17.7023 9.49965 17.2502C8.95401 16.9569 8.4861 16.5378 8.13465 16.0277C7.81271 15.5919 7.62974 15.0691 7.60965 14.5277C7.60886 14.3872 7.63709 14.2481 7.69259 14.119C7.74808 13.9899 7.82964 13.8737 7.93215 13.7777C8.15931 13.5843 8.45174 13.4851 8.74965 13.5002C8.99861 13.4955 9.24092 13.5807 9.43215 13.7402C9.64146 13.936 9.8031 14.1772 9.90465 14.4452C10.0348 14.7584 10.2009 15.0554 10.3996 15.3302C10.5977 15.5839 10.8554 15.7848 11.1496 15.9152C11.5494 16.0867 11.9826 16.1661 12.4171 16.1477C13.0361 16.1777 13.6492 16.0152 14.1721 15.6827C14.3728 15.5651 14.5397 15.3977 14.6567 15.1966C14.7736 14.9956 14.8367 14.7677 14.8396 14.5352C14.8461 14.3723 14.8181 14.2099 14.7573 14.0587C14.6966 13.9075 14.6045 13.7708 14.4871 13.6577C14.2201 13.4116 13.899 13.2318 13.5496 13.1327C13.1596 13.0052 12.6421 12.8777 11.9896 12.7352C11.2403 12.5607 10.5094 12.3146 9.80715 12.0002C9.25457 11.7737 8.76732 11.4128 8.38965 10.9502C8.03144 10.4734 7.84628 9.88877 7.86465 9.29268C7.85859 8.68668 8.05379 8.0958 8.41965 7.61267C8.83754 7.09349 9.39405 6.7034 10.0246 6.48767C10.822 6.22284 11.6599 6.10096 12.4996 6.12768C13.1567 6.11605 13.8117 6.20457 14.4421 6.39018C14.9369 6.53708 15.4016 6.77071 15.8146 7.08017C16.1397 7.3243 16.4104 7.63334 16.6096 7.98767C16.7718 8.2739 16.8595 8.59626 16.8646 8.92518C16.8637 9.06539 16.8347 9.20399 16.7793 9.3328C16.7239 9.46161 16.6433 9.57803 16.5421 9.67518C16.4401 9.78577 16.3159 9.87364 16.1776 9.93308C16.0394 9.99252 15.8901 10.0222 15.7396 10.0202C15.4984 10.0389 15.2592 9.9637 15.0721 9.81018C14.8753 9.62055 14.7107 9.40017 14.5846 9.15768C14.3989 8.77542 14.1298 8.43969 13.7971 8.17517C13.3606 7.90304 12.8468 7.78183 12.3346 7.83017C11.809 7.80801 11.2881 7.93824 10.8346 8.20517C10.6699 8.29312 10.5309 8.42227 10.431 8.58C10.3311 8.73774 10.2738 8.91869 10.2646 9.10518C10.2587 9.30894 10.3251 9.50822 10.4521 9.66768C10.6017 9.84099 10.7856 9.98144 10.9921 10.0802C11.2121 10.194 11.4434 10.2845 11.6821 10.3502C11.9221 10.4177 12.3121 10.5152 12.8596 10.6427C13.5496 10.7927 14.1646 10.9577 14.7271 11.1377C15.2303 11.291 15.7098 11.5131 16.1521 11.7977C16.538 12.0417 16.8554 12.3798 17.0746 12.7802C17.2975 13.2369 17.4008 13.7427 17.3746 14.2502C17.3814 14.9153 17.1794 15.5658 16.7971 16.1102Z" fill="white"/>
</g>
</svg>
