<svg width="25" height="24" viewBox="0 0 25 24" fill="none" xmlns="http://www.w3.org/2000/svg">
<g id="Logo--instagram">
<rect width="24" height="24" transform="translate(0.5)" fill="white" style="mix-blend-mode:multiply"/>
<g id="Vector">
<path d="M17.3042 8.2758C17.9007 8.2758 18.3842 7.79227 18.3842 7.1958C18.3842 6.59933 17.9007 6.1158 17.3042 6.1158C16.7077 6.1158 16.2242 6.59933 16.2242 7.1958C16.2242 7.79227 16.7077 8.2758 17.3042 8.2758Z" fill="white"/>
<path d="M12.5 7.37835C11.5859 7.37835 10.6924 7.64941 9.93235 8.15724C9.17232 8.66507 8.57995 9.38688 8.23015 10.2314C7.88035 11.0759 7.78883 12.0051 7.96715 12.9016C8.14548 13.7982 8.58565 14.6217 9.232 15.268C9.87835 15.9144 10.7018 16.3545 11.5984 16.5328C12.4949 16.7112 13.4241 16.6196 14.2686 16.2698C15.1131 15.92 15.8349 15.3277 16.3428 14.5677C16.8506 13.8076 17.1217 12.9141 17.1217 12C17.1217 10.7743 16.6347 9.59873 15.768 8.732C14.9013 7.86527 13.7257 7.37835 12.5 7.37835ZM12.5 15C11.9067 15 11.3266 14.8241 10.8333 14.4944C10.3399 14.1648 9.95542 13.6962 9.72836 13.1481C9.5013 12.5999 9.44189 11.9967 9.55764 11.4147C9.6734 10.8328 9.95912 10.2982 10.3787 9.87868C10.7982 9.45912 11.3328 9.1734 11.9147 9.05764C12.4967 8.94189 13.0999 9.0013 13.6481 9.22836C14.1962 9.45542 14.6648 9.83994 14.9944 10.3333C15.3241 10.8266 15.5 11.4067 15.5 12C15.5 12.7956 15.1839 13.5587 14.6213 14.1213C14.0587 14.6839 13.2956 15 12.5 15Z" fill="white"/>
<path d="M12.5 4.62165C14.9031 4.62165 15.1878 4.6308 16.1368 4.67415C16.7075 4.68094 17.2728 4.78577 17.808 4.98405C18.1961 5.13381 18.5486 5.36316 18.8428 5.65732C19.1369 5.95149 19.3663 6.30398 19.516 6.6921C19.7143 7.22731 19.8191 7.79261 19.8259 8.36333C19.8692 9.3123 19.8784 9.597 19.8784 12.0001C19.8784 14.4031 19.8693 14.6878 19.8259 15.6368C19.8191 16.2075 19.7143 16.7728 19.516 17.3081C19.3663 17.6962 19.1369 18.0487 18.8428 18.3428C18.5486 18.637 18.1961 18.8663 17.808 19.0161C17.2728 19.2144 16.7075 19.3192 16.1368 19.326C15.1879 19.3693 14.9033 19.3785 12.5 19.3785C10.0967 19.3785 9.81215 19.3694 8.86325 19.326C8.29253 19.3192 7.72723 19.2144 7.19202 19.0161C6.8039 18.8663 6.45142 18.637 6.15725 18.3428C5.86308 18.0487 5.63374 17.6962 5.48397 17.3081C5.28569 16.7728 5.18087 16.2075 5.17408 15.6368C5.1308 14.6878 5.12157 14.4031 5.12157 12.0001C5.12157 9.597 5.13072 9.3123 5.17408 8.36333C5.18087 7.79261 5.28569 7.22731 5.48397 6.6921C5.63373 6.30396 5.86307 5.95146 6.15724 5.65728C6.45141 5.3631 6.80389 5.13375 7.19202 4.98397C7.72723 4.78569 8.29253 4.68087 8.86325 4.67408C9.81222 4.6308 10.0969 4.62165 12.5 4.62165ZM12.5 3C10.0557 3 9.74922 3.01035 8.7893 3.05415C8.04279 3.06914 7.30422 3.21059 6.605 3.4725C6.00705 3.70374 5.46401 4.05735 5.01068 4.51068C4.55735 4.96401 4.20374 5.50705 3.9725 6.105C3.71055 6.80434 3.56909 7.54304 3.55415 8.28968C3.51035 9.24923 3.5 9.55575 3.5 12C3.5 14.4443 3.51035 14.7508 3.55415 15.7107C3.5691 16.4573 3.71056 17.196 3.9725 17.8954C4.20374 18.4933 4.55735 19.0364 5.01068 19.4897C5.46401 19.943 6.00705 20.2966 6.605 20.5279C7.30434 20.7898 8.04304 20.9313 8.78968 20.9462C9.74923 20.9897 10.0557 21 12.5 21C14.9443 21 15.2508 20.9896 16.2107 20.9459C16.9573 20.9309 17.696 20.7894 18.3954 20.5275C18.9933 20.2963 19.5364 19.9426 19.9897 19.4893C20.443 19.036 20.7966 18.493 21.0279 17.895C21.2898 17.1957 21.4313 16.457 21.4462 15.7103C21.4897 14.7508 21.5 14.4443 21.5 12C21.5 9.55575 21.4896 9.24922 21.4459 8.2893C21.4309 7.54279 21.2894 6.80422 21.0275 6.105C20.7962 5.50712 20.4426 4.96415 19.9893 4.51089C19.5359 4.05763 18.9929 3.70407 18.395 3.47287C17.6957 3.21093 16.957 3.06948 16.2103 3.05453C15.2508 3.01035 14.9443 3 12.5 3Z" fill="white"/>
</g>
</g>
</svg>
