<svg width="25" height="24" viewBox="0 0 25 24" fill="none" xmlns="http://www.w3.org/2000/svg">
<g id="Logo--facebook">
<rect width="24" height="24" transform="translate(0.5)" fill="white" style="mix-blend-mode:multiply"/>
<path id="Vector" d="M20.5025 3H4.4975C4.23355 3.00196 3.98097 3.10769 3.79433 3.29433C3.60769 3.48097 3.50196 3.73355 3.5 3.9975V20.0025C3.50196 20.2664 3.60769 20.519 3.79433 20.7057C3.98097 20.8923 4.23355 20.998 4.4975 21H13.115V14.04H10.775V11.3175H13.115V9.315C13.115 6.99 14.5325 5.7225 16.6175 5.7225C17.315 5.7225 18.0125 5.7225 18.71 5.8275V8.25H17.2775C16.145 8.25 15.9275 8.79 15.9275 9.5775V11.31H18.6275L18.275 14.0325H15.9275V21H20.5025C20.7664 20.998 21.019 20.8923 21.2057 20.7057C21.3923 20.519 21.498 20.2664 21.5 20.0025V3.9975C21.498 3.73355 21.3923 3.48097 21.2057 3.29433C21.019 3.10769 20.7664 3.00196 20.5025 3Z" fill="white"/>
</g>
</svg>
