<svg width="21" height="21" viewBox="0 0 21 21" fill="none" xmlns="http://www.w3.org/2000/svg">
<g id="Search">
<rect width="20" height="20" transform="translate(0.335938 0.333008)" fill="white" style="mix-blend-mode:multiply"/>
<path id="Vector" d="M18.4596 17.5739L13.7396 12.8538C14.8738 11.4921 15.4393 9.74565 15.3186 7.97762C15.1979 6.20959 14.4003 4.55615 13.0915 3.36127C11.7828 2.16639 10.0638 1.52207 8.29213 1.56233C6.52044 1.60259 4.83248 2.32434 3.57938 3.57743C2.32629 4.83052 1.60454 6.51849 1.56428 8.29017C1.52402 10.0619 2.16835 11.7809 3.36323 13.0896C4.55811 14.3983 6.21154 15.196 7.97957 15.3167C9.7476 15.4374 11.4941 14.8718 12.8557 13.7376L17.5758 18.4577L18.4596 17.5739ZM2.83462 8.45767C2.83462 7.34515 3.16452 6.25761 3.7826 5.33259C4.40069 4.40756 5.27919 3.68659 6.30703 3.26085C7.33486 2.8351 8.46586 2.72371 9.557 2.94075C10.6481 3.15779 11.6504 3.69352 12.4371 4.48019C13.2238 5.26686 13.7595 6.26914 13.9765 7.36028C14.1936 8.45143 14.0822 9.58243 13.6564 10.6103C13.2307 11.6381 12.5097 12.5166 11.5847 13.1347C10.6597 13.7528 9.57214 14.0827 8.45962 14.0827C6.96829 14.081 5.53851 13.4879 4.48397 12.4333C3.42944 11.3788 2.83627 9.949 2.83462 8.45767Z" fill="#2A254B"/>
</g>
</svg>
