<svg width="21" height="21" viewBox="0 0 21 21" fill="none" xmlns="http://www.w3.org/2000/svg">
<g id="Shopping--cart" clip-path="url(#clip0_2372_1592)">
<rect width="20.3333" height="20.3333" transform="translate(0.335938)" fill="white" style="mix-blend-mode:multiply"/>
<g id="Vector">
<path d="M6.6901 19.0623C7.39197 19.0623 7.96094 18.4933 7.96094 17.7915C7.96094 17.0896 7.39197 16.5206 6.6901 16.5206C5.98824 16.5206 5.41927 17.0896 5.41927 17.7915C5.41927 18.4933 5.98824 19.0623 6.6901 19.0623Z" fill="#2A254B"/>
<path d="M15.5859 19.0623C16.2878 19.0623 16.8568 18.4933 16.8568 17.7915C16.8568 17.0896 16.2878 16.5206 15.5859 16.5206C14.8841 16.5206 14.3151 17.0896 14.3151 17.7915C14.3151 18.4933 14.8841 19.0623 15.5859 19.0623Z" fill="#2A254B"/>
<path d="M18.1276 4.44772H4.03406L3.51302 1.77897C3.48331 1.63328 3.40346 1.50263 3.28736 1.40975C3.17126 1.31687 3.02626 1.26764 2.8776 1.27064H0.335938V2.54147H2.35656L4.78385 14.7415C4.81356 14.8872 4.89342 15.0178 5.00952 15.1107C5.12562 15.2036 5.27062 15.2528 5.41927 15.2498H16.8568V13.979H5.94031L5.41927 11.4373H16.8568C17.0037 11.4409 17.1472 11.3935 17.2631 11.3031C17.379 11.2127 17.4599 11.085 17.4922 10.9417L18.763 5.22293C18.7843 5.12865 18.7838 5.03075 18.7616 4.93669C18.7393 4.84263 18.6959 4.75489 18.6346 4.68014C18.5734 4.60539 18.4959 4.5456 18.408 4.50532C18.3201 4.46505 18.2242 4.44535 18.1276 4.44772ZM16.3484 10.1665H5.17781L4.28823 5.71855H17.3333L16.3484 10.1665Z" fill="#2A254B"/>
</g>
</g>
<defs>
<clipPath id="clip0_2372_1592">
<rect width="20.3333" height="20.3333" fill="white" transform="translate(0.335938)"/>
</clipPath>
</defs>
</svg>
