<svg width="21" height="21" viewBox="0 0 21 21" fill="none" xmlns="http://www.w3.org/2000/svg">
<g id="User--avatar">
<rect width="20.3333" height="20.3333" transform="translate(0.671875)" fill="white" style="mix-blend-mode:multiply"/>
<g id="Vector">
<path d="M10.8412 5.08301C10.2128 5.08301 9.59853 5.26934 9.07606 5.61844C8.55359 5.96755 8.14637 6.46374 7.90591 7.04427C7.66544 7.62481 7.60252 8.26362 7.72511 8.87991C7.8477 9.4962 8.15029 10.0623 8.59461 10.5066C9.03894 10.951 9.60504 11.2535 10.2213 11.3761C10.8376 11.4987 11.4764 11.4358 12.057 11.1953C12.6375 10.9549 13.1337 10.5477 13.4828 10.0252C13.8319 9.50272 14.0182 8.88846 14.0182 8.26009C14.0182 7.41748 13.6835 6.60937 13.0877 6.01355C12.4919 5.41774 11.6838 5.08301 10.8412 5.08301ZM10.8412 10.1663C10.4641 10.1663 10.0956 10.0545 9.78209 9.84508C9.46861 9.63562 9.22428 9.3379 9.08 8.98958C8.93573 8.64126 8.89797 8.25798 8.97153 7.8882C9.04508 7.51842 9.22663 7.17876 9.49323 6.91217C9.75982 6.64558 10.0995 6.46402 10.4693 6.39047C10.839 6.31692 11.2223 6.35467 11.5706 6.49895C11.919 6.64323 12.2167 6.88755 12.4261 7.20104C12.6356 7.51452 12.7474 7.88307 12.7474 8.26009C12.7468 8.76549 12.5458 9.25002 12.1884 9.60738C11.8311 9.96475 11.3465 10.1658 10.8412 10.1663Z" fill="#2A254B"/>
<path d="M10.8412 1.27051C9.08172 1.27051 7.3618 1.79224 5.89889 2.76973C4.43598 3.74721 3.29578 5.13655 2.62247 6.76205C1.94917 8.38756 1.773 10.1762 2.11625 11.9018C2.4595 13.6275 3.30674 15.2125 4.55085 16.4566C5.79495 17.7008 7.38004 18.548 9.10566 18.8912C10.8313 19.2345 12.6199 19.0583 14.2454 18.385C15.8709 17.7117 17.2603 16.5715 18.2378 15.1086C19.2153 13.6457 19.737 11.9258 19.737 10.1663C19.7343 7.80784 18.7962 5.54669 17.1285 3.87897C15.4608 2.21126 13.1997 1.27317 10.8412 1.27051ZM7.02865 16.7597V15.8851C7.02921 15.3797 7.23022 14.8952 7.58759 14.5378C7.94496 14.1804 8.4295 13.9794 8.9349 13.9788H12.7474C13.2528 13.9794 13.7373 14.1804 14.0947 14.5378C14.4521 14.8952 14.6531 15.3797 14.6537 15.8851V16.7597C13.4967 17.4353 12.1809 17.7913 10.8412 17.7913C9.50136 17.7913 8.18564 17.4353 7.02865 16.7597ZM15.9197 15.8379C15.9071 15.0044 15.5675 14.2093 14.9741 13.6238C14.3807 13.0383 13.581 12.7094 12.7474 12.708H8.9349C8.1013 12.7094 7.30162 13.0383 6.70822 13.6238C6.11483 14.2093 5.77521 15.0044 5.76258 15.8379C4.61029 14.809 3.7977 13.4544 3.4324 11.9534C3.06711 10.4524 3.16633 8.8759 3.71695 7.43256C4.26756 5.98922 5.24359 4.74717 6.51579 3.87087C7.78799 2.99456 9.29635 2.52535 10.8412 2.52535C12.386 2.52535 13.8943 2.99456 15.1665 3.87087C16.4387 4.74717 17.4147 5.98922 17.9654 7.43256C18.516 8.8759 18.6152 10.4524 18.2499 11.9534C17.8846 13.4544 17.072 14.809 15.9197 15.8379Z" fill="#2A254B"/>
</g>
</g>
</svg>
